<?xml version="1.0" encoding="utf-8"?>
<!-- Generator: Adobe Illustrator 27.0.1, SVG Export Plug-In . SVG Version: 6.00 Build 0)  -->
<svg version="1.1" id="Layer_1" xmlns="http://www.w3.org/2000/svg" xmlns:xlink="http://www.w3.org/1999/xlink" x="0px" y="0px"
	 viewBox="0 0 500 200" style="enable-background:new 0 0 500 200;" xml:space="preserve">
<style type="text/css">
	.st0{fill-rule:evenodd;clip-rule:evenodd;fill:#008FF8;}
	.st1{fill-rule:evenodd;clip-rule:evenodd;fill:#8ECF00;}
	.st2{fill:#141417;}
</style>
<path class="st0" d="M96.9,132C88.2,132,81,124.8,81,116c0-2.6,0.6-5.1,1.8-7.4c0,0,0-0.1,0-0.1c0,0,0-0.1,0-0.1l18.9-32.6
	c0,0,0.1-0.2,0.2-0.3c2.9-4.7,8-7.6,13.5-7.6c8.8,0,15.9,7.2,15.9,15.9c0,2.6-0.6,5.2-1.9,7.5c0,0-3.3,5.6-3.3,5.6
	c-0.5,0.9-0.5,2.1,0.2,2.9c0.5,0.6,1.3,1,2,1c0.3,0,0.5,0,0.7-0.1c1.5-0.5,3.1-0.7,4.6-0.7c8.8,0,15.9,7.2,15.9,15.9
	s-7.2,15.9-15.9,15.9c-7.5,0-13.9-5.1-15.5-12.4c-0.2-1-1.1-1.8-2.1-2h-0.4c-0.9,0-1.8,0.5-2.2,1.3l-2.5,4.3c-0.8,1.6-1.8,3-3,4.2
	C105.2,130.3,101.2,132,96.9,132L96.9,132z M120.9,78.7c-1.4-1.4-3.2-2.2-5.2-2.2c-2,0-3.9,0.8-5.2,2.2c-0.3,0.3-0.5,0.5-0.7,0.9
	c0,0-0.1,0.1-0.1,0.1c0,0,0,0.1-0.1,0.1l-0.6,1L100.8,95l-1.5,2.7l-8.7,15.1c-0.5,1-0.8,2.1-0.8,3.3c0,4.1,3.3,7.4,7.4,7.4
	c2,0,3.9-0.8,5.2-2.2c0.3-0.3,0.5-0.5,0.7-0.8c0.1-0.1,0.1-0.1,0.2-0.2c0,0,0.1-0.1,0.1-0.1l0.4-0.7l0.1-0.1L112,105l1.5-2.7
	l8.4-14.6c0.7-1.1,1.1-2.4,1.1-3.8C123.1,82,122.2,80.1,120.9,78.7L120.9,78.7z M141.6,116c0,4.1-3.3,7.4-7.4,7.4
	c-4.1,0-7.4-3.3-7.4-7.4c0-4.1,3.3-7.4,7.4-7.4C138.2,108.6,141.6,111.9,141.6,116z"/>
<path class="st1" d="M134,132c8.8,0,16-7.2,16-16s-7.2-16-16-16c-8.8,0-16,7.2-16,16S125.1,132,134,132z M141.6,116
	c0,4.1-3.3,7.4-7.4,7.4c-4.1,0-7.4-3.3-7.4-7.4c0-4.1,3.3-7.4,7.4-7.4C138.2,108.6,141.6,111.9,141.6,116z"/>
<path class="st2" d="M198.8,88v-4h7.2v33h-7.2v-3.8c-1.2,0.9-2.3,1.8-3.5,2.6c-8.6,5.1-19.2,1.4-22.8-8c-2.1-5.6-2.1-11.3,1-16.6
	c3.4-6,8.8-8.9,15.7-8.3c3.7,0.3,6.9,2,9.3,4.9c0.1,0.1,0.1,0.1,0.2,0.2C198.6,87.9,198.6,87.9,198.8,88L198.8,88z M198.6,99.7
	c-0.2-0.7-0.3-2.1-0.8-3.4c-2-5.7-8.9-8.1-14-4.8c-4.9,3.2-6.3,10.3-2.8,15.2c3.1,4.4,9.2,5.5,13.4,2.4
	C197.2,106.9,198.4,103.9,198.6,99.7L198.6,99.7z"/>
<path class="st2" d="M274,88.1v-4.1h7.3v33H274v-4c-0.8,0.6-1.4,1.3-2.1,1.8c-3.1,2.2-6.5,3.4-10.3,3.2c-5.9-0.3-10.3-3.1-13-8.3
	c-3.4-6.6-3.4-13.4,0.7-19.7c3.5-5.3,8.7-7.7,15-7.1c3.7,0.4,6.9,2,9.3,5C273.7,87.9,273.8,87.9,274,88.1L274,88.1z M273.7,100.9
	c0-2.2-0.3-3.7-1-5.2c-2.2-5.2-8.9-7.3-13.7-4.3c-5.2,3.3-6.5,10.9-2.6,15.7c3.2,4,8.9,5,13,2C272.5,107,273.6,103.9,273.7,100.9
	L273.7,100.9z"/>
<path class="st2" d="M241.4,116.9h-7.9c0-0.3,0-0.5,0-0.8c0-5.6,0-11.1,0-16.7c0-1.8-0.3-3.6-0.9-5.2c-0.8-2.3-2.3-3.8-4.8-4.1
	c-2.7-0.3-4.8,0.6-6.3,2.9c-1.1,1.7-1.5,3.6-1.5,5.5c0,5.9,0,11.7,0,17.6c0,0.3,0,0.5,0,0.8h-7.9v-33h7.2v2.8
	c0.3-0.3,0.5-0.4,0.7-0.6c2.8-2.6,6.1-3.7,9.8-3.3c5,0.6,9.3,3.6,10.8,9.2c0.4,1.6,0.7,3.3,0.7,5c0.1,6.5,0,12.9,0,19.4
	C241.5,116.5,241.5,116.7,241.4,116.9L241.4,116.9z"/>
<path class="st2" d="M304.9,127.9c0.8-1.9,1.6-3.8,2.4-5.6c1.2-2.7,2.3-5.4,3.5-8.1c0.1-0.2,0.1-0.6,0-0.9
	c-3.9-9.7-7.8-19.3-11.7-29c-0.1-0.2-0.1-0.3-0.2-0.6c0.3,0,0.4,0,0.6,0c2.6,0,5.2,0,7.9,0c0.4,0,0.6,0.1,0.7,0.5
	c2.3,6.6,4.7,13.3,7,19.9c0.1,0.2,0.2,0.4,0.3,0.7c0.4-1.1,0.8-2,1.1-3c2.2-5.9,4.5-11.8,6.7-17.7c0.1-0.2,0.3-0.4,0.5-0.4
	c2.8,0,5.7,0,8.6,0c-0.5,1.1-0.9,2.2-1.4,3.2c-5.6,12.9-11.1,25.7-16.7,38.6c-0.3,0.7-0.5,1.8-1.1,2.1c-0.6,0.4-1.6,0.1-2.4,0.1
	C309,127.9,307,127.9,304.9,127.9L304.9,127.9z"/>
<path class="st2" d="M408.6,105.1c0.6-1.6,1.1-3,1.6-4.3c2.1-5.4,4.1-10.9,6.1-16.3c0.1-0.3,0.2-0.6,0.7-0.6c2.7,0,5.5,0,8.2,0
	c0.1,0,0.2,0,0.3,0c-0.5,1.2-1,2.3-1.5,3.5c-3.4,7.9-6.9,15.9-10.3,23.8c-2.3,5.4-4.7,10.9-7,16.3c-0.1,0.2-0.3,0.4-0.5,0.4
	c-2.7,0-5.4,0-8.2,0c0.6-1.3,1.1-2.5,1.6-3.8c1.4-3.3,2.8-6.5,4.2-9.8c0.1-0.3,0.1-0.7,0-1c-3.7-9.2-7.4-18.5-11.2-27.7
	c-0.2-0.6-0.5-1.1-0.7-1.8h1.6c2.2,0,4.5,0,6.7,0c0.5,0,0.8,0.2,1,0.7c1.5,4.3,3,8.6,4.5,12.9C406.8,99.9,407.7,102.4,408.6,105.1
	L408.6,105.1z"/>
<path class="st2" d="M348.9,91.1H336v-7.2h22.5v1.4c0,1.7,0,3.4,0,5.1c0,0.5-0.1,0.9-0.5,1.3c-4.6,5.8-9.1,11.5-13.7,17.3
	c-0.1,0.2-0.3,0.4-0.5,0.7h15.6v7.2h-25.1c0-0.2,0-0.3,0-0.5c0-2,0-4.1,0-6.1c0-0.3,0.1-0.7,0.3-0.9c4.6-5.9,9.3-11.7,13.9-17.6
	C348.6,91.6,348.7,91.4,348.9,91.1L348.9,91.1z"/>
<path class="st2" d="M386.5,116.9h-7.9v-26h-2.8v-7h2.7c0.2-1.1,0.3-2.1,0.5-3.1c1-4.7,4.5-8.1,9.1-8.7c1.1-0.1,2.3,0,3.5,0v7.7
	c-1.5,0.2-3.1-0.1-4.2,1.3c-0.7,0.8-0.8,1.8-0.8,2.9h4.6v7h-4.6V116.9L386.5,116.9z"/>
<path class="st2" d="M295.2,116.9h-7.8v-44h7.8V116.9z"/>
<path class="st2" d="M371.6,83.9v33h-7.9v-33H371.6z"/>
<path class="st2" d="M363.7,80.1v-7.2h7.9v7.2H363.7z"/>
</svg>
